<?xml version="1.0" standalone="no"?>
<!DOCTYPE svg PUBLIC "-//W3C//DTD SVG 20010904//EN"
 "http://www.w3.org/TR/2001/REC-SVG-20010904/DTD/svg10.dtd">
<svg version="1.0" xmlns="http://www.w3.org/2000/svg"
 width="2048pt" height="2048pt" viewBox="0 0 2048 2048"
 preserveAspectRatio="xMidYMid meet">

<!-- White background circle -->
<circle cx="1024" cy="1024" r="1024" fill="#ffffff" />

<g transform="translate(0,2048) scale(0.1,-0.1)" fill="#009154" stroke="none">
  <path d="M9864 20469 c-2351 -82 -4605 -982 -6379 -2544 -1567
  -1380 -2672 -3188 -3175 -5195 -407 -1623 -407 -3357 0 -4980
  659 -2625 2349 -4897 4685 -6298 1883 -1128 4074 -1616 6275
  -1396 2111 210 4107 1079 5710 2486 1891 1659 3104 3935 3414
  6408 58 461 79 800 79 1290 0 489 -21 826 -79 1290 -378 3032
  -2120 5751 -4739 7395 -1301 816 -2806 1335 -4335 1494 -512 53
  -947 68 -1456 50z m716 -2229 c85 -6 229 -17 320 -26 1803 -166
  3501 -814 4937 -1883 l143 -106 0 -1347 0 -1348 -202 206 c-788
  802 -1632 1420 -2573 1884 -906 447 -1790 696 -2775 782 -195 17
  -793 17 -930 0 -621 -76 -1087 -276 -1416 -606 -320 -322 -463
  -713 -426 -1168 70 -880 642 -1440 1914 -1873 431 -147 818 -250
  1883 -500 910 -214 1283 -309 1725 -440 1713 -509 2735 -1196
  3303 -2219 342 -616 508 -1401 475 -2256 -37 -995 -481 -2058
  -1227 -2940 -131 -155 -417 -447 -576 -589 -1019 -906 -2315
  -1461 -3780 -1620 -795 -87 -1585 -54 -2443 100 -1705 305 -3477
  1086 -4578 2016 -64 54 -125 105 -135 113 -19 15 -19 56 -17 1630
  l3 1615 79 -110 c239 -332 467 -597 806 -936 341 -342 583 -553
  935 -815 903 -673 1945 -1166 2968 -1403 804 -186 1596 -228
  2206 -115 648 119 1229 406 1602 791 206 212 328 416 397 663 26
  90 27 107 27 310 -1 183 -4 230 -23 316 -161 743 -756 1234 -2022
  1669 -328 113 -782 243 -1650 475 -1046 279 -1458 401 -1975 585
  -1375 489 -2286 1112 -2839 1940 -376 564 -582 1209 -637 2000
  -15 211 -6 667 15 855 95 811 385 1527 876 2161 721 931 1852 1632
  3195 1980 483 124 894 187 1480 223 107 7 775 -3 935 -14z"/>
</g>

</svg>
