<?xml version="1.0" standalone="no"?>
<!DOCTYPE svg PUBLIC "-//W3C//DTD SVG 20010904//EN"
 "http://www.w3.org/TR/2001/REC-SVG-20010904/DTD/svg10.dtd">
<svg version="1.0" xmlns="http://www.w3.org/2000/svg"
 width="900pt" height="900pt" viewBox="0 0 900 900"
 preserveAspectRatio="xMidYMid meet">

<!-- Slightly smaller white circle so no white outline bleeds out -->
<circle cx="450" cy="450" r="430" fill="#ffffff" />

<g transform="translate(0,900) scale(0.1,-0.1)" fill="#015ca2" stroke="none">
  <path d="M4285 8974 c-22 -2 -103 -8 -180 -14 -702 -54 -1437 -307 -2048 -706
  -1136 -742 -1878 -1957 -2012 -3294 -65 -646 5 -1273 209 -1885 218 -653 578
  -1235 1071 -1731 152 -153 219 -213 375 -338 184 -147 392 -291 545 -376 309
  -173 513 -267 780 -359 497 -172 942 -246 1480 -245 730 0 1357 148 2005 473
  1367 685 2293 2028 2447 3548 21 208 23 650 5 848 -72 775 -328 1489 -760
  2125 -661 973 -1695 1655 -2842 1875 -204 39 -240 45 -396 60 -143 15 -596 27
  -679 19z m-803 -3611 l3 -1838 28 -90 c92 -296 276 -515 542 -645 404 -197
  879 -109 1188 221 123 131 198 264 250 447 l22 77 3 1833 2 1832 885 0 885 0
  -3 -1892 -3 -1893 -23 -135 c-125 -737 -498 -1360 -1075 -1798 -757 -574
  -1768 -723 -2661 -391 -587 218 -1094 639 -1414 1172 -219 365 -342 735 -391
  1172 -6 57 -10 763 -10 1928 l0 1837 885 0 885 0 2 -1837z"/>
</g>

</svg>
